<?xml version="1.0" standalone="no"?>
<!DOCTYPE svg PUBLIC "-//W3C//DTD SVG 20010904//EN"
 "http://www.w3.org/TR/2001/REC-SVG-20010904/DTD/svg10.dtd">
<svg version="1.0" xmlns="http://www.w3.org/2000/svg"
 width="310.000000pt" height="310.000000pt" viewBox="0 0 310.000000 310.000000"
 preserveAspectRatio="xMidYMid meet">
<metadata>
Created by potrace 1.11, written by Peter Selinger 2001-2013
</metadata>
<g transform="translate(0.000000,310.000000) scale(0.100000,-0.100000)"
fill="#000000" stroke="none">
<path d="M1275 2955 c-210 -36 -390 -104 -529 -199 -129 -89 -328 -291 -393
-401 -44 -75 -136 -273 -157 -340 -148 -463 -60 -978 234 -1355 52 -67 197
-210 265 -262 162 -123 412 -232 600 -262 97 -16 131 -19 233 -21 184 -3 328
21 509 85 504 179 864 633 940 1185 14 98 6 355 -12 425 -2 8 -7 30 -10 48
-12 70 -69 231 -115 324 -80 160 -160 269 -290 397 -66 64 -196 165 -255 197
-11 6 -41 23 -66 37 -109 62 -284 120 -459 152 -19 4 -109 8 -200 10 -135 2
-189 -2 -295 -20z"/>
</g>
</svg>
